# Aspose.3D Wavefront OBJ Exporter
# Copyright 2004-2023 Aspose Pty Ltd.
# File created: 03/30/2023 19:22:12

mtllib material.lib

#
# object Object_5
#

v -1 -0.99999999999999984 -1.00000000000000022
v -1 -1.00000000000000022 0.99999999999999984
v -1 0.99999999999999984 1.00000000000000022
v -1 1 -0.99999999999999984
v 1 -1.00000000000000022 0.99999999999999984
v 1 -0.99999999999999984 -1.00000000000000022
v 1 1 -0.99999999999999984
v 1 0.99999999999999984 1.00000000000000022
# 8 vertices

vn -1 0 0
vn -1 0 0
vn -1 0 0
vn -1 0 0
vn 1 0 0
vn 1 0 0
vn 1 0 0
vn 1 0 0
# 8 vertex normals

vt 0 -0 0
vt 1 -0 0
vt 1 -1 0
vt 0 -1 0
vt 0 -0 0
vt 1 -0 0
vt 1 -1 0
vt 0 -1 0
# 8 texture coords

g Object_5
usemtl material_0
s 1
f 1/1/1 2/2/2 3/3/3
f 3/3/3 4/4/4 1/1/1
f 5/5/5 6/6/6 7/7/7
f 7/7/7 8/8/8 5/5/5
#4 polygons


#
# object Object_8
#

v 0.25 -0.99999999999999984 -0.43299999833107016
v 0.43299999833106992 1 -0.24999999999999976
v 0.25 1 -0.43299999833106976
v 0.25 -0.99999999999999984 -0.43299999833107016
v 0.25 1 -0.43299999833106976
v 0 1 -0.49999999999999976
v 0 -0.99999999999999984 -0.50000000000000024
v 0 -0.99999999999999984 -0.50000000000000024
v 0 1 -0.49999999999999976
v -0.25 1 -0.43299999833106976
v -0.25 -0.99999999999999984 -0.43299999833107016
v -0.25 -0.99999999999999984 -0.43299999833107016
v -0.25 1 -0.43299999833106976
v -0.43299999833106992 1 -0.24999999999999976
v -0.43299999833106992 -1 -0.25000000000000024
v -0.43299999833106992 -1 -0.25000000000000024
v -0.43299999833106992 1 -0.24999999999999976
v -0.5 -1 -2.220446049250313E-16
v -0.5 1 2.220446049250313E-16
v -0.5 1 2.220446049250313E-16
v -0.43299999833106992 -1 0.24999999999999976
v -0.5 -1 -2.220446049250313E-16
v -0.43299999833106992 1 0.25000000000000024
v -0.43299999833106992 -1 0.24999999999999976
v -0.43299999833106992 1 0.25000000000000024
v -0.25 1 0.43299999833107016
v -0.25 1 0.43299999833107016
v -0.40389999747276304 -1 0.2791999876499174
v -0.43299999833106992 -1 0.24999999999999976
v 0.5 -1 -2.220446049250313E-16
v 0.5 1 2.220446049250313E-16
v 0.43299999833106992 1 -0.24999999999999976
v 0.43299999833106992 -1 -0.25000000000000024
v 0.43299999833106992 -1 -0.25000000000000024
v -0.25 1 0.43299999833107016
v -0.25 -1 0.43299999833106976
v -0.40389999747276304 -1 0.2791999876499174
v 0 -1 0.49999999999999976
v -0.25 -1 0.43299999833106976
v -0.25 1 0.43299999833107016
v 0 1 0.50000000000000024
v 0 -1 0.49999999999999976
v 0 1 0.50000000000000024
v 0.25 1 0.43299999833107016
v 0.25 -1 0.43299999833106976
v 0.25 -1 0.43299999833106976
v 0.25 1 0.43299999833107016
v 0.43299999833106992 1 0.25000000000000024
v 0.43299999833106992 -1 0.24999999999999976
v 0.43299999833106992 -1 0.24999999999999976
v 0.43299999833106992 1 0.25000000000000024
v 0.5 1 2.220446049250313E-16
v 0.5 -1 -2.220446049250313E-16
# 53 vertices

vn -0.7071068286895752 -1.5700925641616852E-16 0.7071068286895752
vn -0.7071068286895752 -1.5700925641616852E-16 0.7071068286895752
vn -0.7071068286895752 -1.5700925641616852E-16 0.7071068286895752
vn -0.25886484980583192 -2.144759023201711E-16 0.96591359376907344
vn -0.25886484980583192 -2.144759023201711E-16 0.96591359376907344
vn -0.25886484980583192 -2.144759023201711E-16 0.96591359376907344
vn -0.25886484980583192 -2.144759023201711E-16 0.96591359376907344
vn 0.25886484980583192 -2.144759023201711E-16 0.96591359376907344
vn 0.25886484980583192 -2.144759023201711E-16 0.96591359376907344
vn 0.25886484980583192 -2.144759023201711E-16 0.96591359376907344
vn 0.25886484980583192 -2.144759023201711E-16 0.96591359376907344
vn 0.7071068286895752 -1.5700925641616852E-16 0.7071068286895752
vn 0.7071068286895752 -1.5700925641616852E-16 0.7071068286895752
vn 0.7071068286895752 -1.5700925641616852E-16 0.7071068286895752
vn 0.7071068286895752 -1.5700925641616852E-16 0.7071068286895752
vn 0.96591359376907344 -5.747954330411351E-17 0.25886484980583192
vn 0.96591359376907344 -5.747954330411351E-17 0.25886484980583192
vn 0.96591359376907344 -5.747954330411351E-17 0.25886484980583192
vn 0.96591359376907344 -5.747954330411351E-17 0.25886484980583192
vn 0.96591359376907344 5.747954330411351E-17 -0.25886484980583192
vn 0.96591359376907344 5.747954330411351E-17 -0.25886484980583192
vn 0.96591359376907344 5.747954330411351E-17 -0.25886484980583192
vn 0.96591359376907344 5.747954330411351E-17 -0.25886484980583192
vn 0.7071068286895752 1.5700925641616852E-16 -0.7071068286895752
vn 0.7071068286895752 1.5700925641616852E-16 -0.7071068286895752
vn 0.7071068286895752 1.5700925641616852E-16 -0.7071068286895752
vn 0.70831847190856936 -0.00022192810138206155 -0.70589303970336912
vn 0.70831847190856936 -0.00022192810138206155 -0.70589303970336912
vn 0.70831847190856936 -0.00022192810138206155 -0.70589303970336912
vn -0.96591359376907344 -5.747954330411351E-17 0.25886484980583192
vn -0.96591359376907344 -5.747954330411351E-17 0.25886484980583192
vn -0.96591359376907344 -5.747954330411351E-17 0.25886484980583192
vn -0.96591359376907344 -5.747954330411351E-17 0.25886484980583192
vn -0.7071068286895752 -1.5700925641616852E-16 0.7071068286895752
vn 0.70687699317932128 1.5706025044657119E-16 -0.7073364853858948
vn 0.70687699317932128 1.5706025044657119E-16 -0.7073364853858948
vn 0.70687699317932128 1.5706025044657119E-16 -0.7073364853858948
vn 0.25886484980583192 2.144759023201711E-16 -0.96591359376907344
vn 0.25886484980583192 2.144759023201711E-16 -0.96591359376907344
vn 0.25886484980583192 2.144759023201711E-16 -0.96591359376907344
vn 0.25886484980583192 2.144759023201711E-16 -0.96591359376907344
vn -0.25886484980583192 2.144759023201711E-16 -0.96591359376907344
vn -0.25886484980583192 2.144759023201711E-16 -0.96591359376907344
vn -0.25886484980583192 2.144759023201711E-16 -0.96591359376907344
vn -0.25886484980583192 2.144759023201711E-16 -0.96591359376907344
vn -0.7071068286895752 1.5700925641616852E-16 -0.7071068286895752
vn -0.7071068286895752 1.5700925641616852E-16 -0.7071068286895752
vn -0.7071068286895752 1.5700925641616852E-16 -0.7071068286895752
vn -0.7071068286895752 1.5700925641616852E-16 -0.7071068286895752
vn -0.96591359376907344 5.747954330411351E-17 -0.25886484980583192
vn -0.96591359376907344 5.747954330411351E-17 -0.25886484980583192
vn -0.96591359376907344 5.747954330411351E-17 -0.25886484980583192
vn -0.96591359376907344 5.747954330411351E-17 -0.25886484980583192
# 53 vertex normals

vt 0.28349998593330384 -0.25 0
vt 0.375 -0.75 0
vt 0.28349998593330384 -0.75 0
vt 0.375 -0.25 0
vt 0.375 -0.75 0
vt 0.5 -0.75 0
vt 0.5 -0.25 0
vt 0.5 -0.25 0
vt 0.5 -0.75 0
vt 0.625 -0.75 0
vt 0.625 -0.25 0
vt 0.28349998593330384 -0.25 0
vt 0.28349998593330384 -0.75 0
vt 0.375 -0.75 0
vt 0.375 -0.25 0
vt 0.375 -0.25 0
vt 0.375 -0.75 0
vt 0.5 -0.25 0
vt 0.5 -0.75 0
vt 0.5 -0.75 0
vt 0.625 -0.25 0
vt 0.5 -0.25 0
vt 0.625 -0.75 0
vt 0.625 -0.25 0
vt 0.625 -0.75 0
vt 0.71649998426437376 -0.75 0
vt 0.71649998426437376 -0.75 0
vt 0.6395999789237976 -0.25 0
vt 0.625 -0.25 0
vt 0.5 -0.25 0
vt 0.5 -0.75 0
vt 0.375 -0.75 0
vt 0.375 -0.25 0
vt 0.375 -0.25 0
vt 0.71649998426437376 -0.75 0
vt 0.71649998426437376 -0.25 0
vt 0.6395999789237976 -0.25 0
vt 0.5 -0.25 0
vt 0.625 -0.25 0
vt 0.625 -0.75 0
vt 0.5 -0.75 0
vt 0.5 -0.25 0
vt 0.5 -0.75 0
vt 0.375 -0.75 0
vt 0.375 -0.25 0
vt 0.71649998426437376 -0.25 0
vt 0.71649998426437376 -0.75 0
vt 0.625 -0.75 0
vt 0.625 -0.25 0
vt 0.625 -0.25 0
vt 0.625 -0.75 0
vt 0.5 -0.75 0
vt 0.5 -0.25 0
# 53 texture coords

g Object_8
usemtl material_1
s 2
f 9/9/9 10/10/10 11/11/11
f 12/12/12 13/13/13 14/14/14
f 14/14/14 15/15/15 12/12/12
f 16/16/16 17/17/17 18/18/18
f 18/18/18 19/19/19 16/16/16
f 20/20/20 21/21/21 22/22/22
f 22/22/22 23/23/23 20/20/20
f 24/24/24 25/25/25 26/26/26
f 26/26/26 25/25/25 27/27/27
f 28/28/28 29/29/29 30/30/30
f 29/29/29 28/28/28 31/31/31
f 32/32/32 33/33/33 34/34/34
f 35/35/35 36/36/36 37/37/37
f 38/38/38 39/39/39 40/40/40
f 40/40/40 41/41/41 38/38/38
f 10/10/10 9/9/9 42/42/42
f 43/43/43 44/44/44 45/45/45
f 46/46/46 47/47/47 48/48/48
f 46/46/46 48/48/48 49/49/49
f 50/50/50 51/51/51 52/52/52
f 52/52/52 53/53/53 50/50/50
f 54/54/54 55/55/55 56/56/56
f 56/56/56 57/57/57 54/54/54
f 58/58/58 59/59/59 60/60/60
f 60/60/60 61/61/61 58/58/58
#25 polygons


#
# object Object_11
#

v -1 -1.00000000000000022 0.99999999999999984
v 1 -1.00000000000000022 0.99999999999999984
v 1 0.99999999999999984 1.00000000000000022
v -1 0.99999999999999984 1.00000000000000022
v 1 -0.99999999999999984 -1.00000000000000022
v -1 -0.99999999999999984 -1.00000000000000022
v -1 1 -0.99999999999999984
v 1 1 -0.99999999999999984
# 8 vertices

vn 0 -2.220446049250313E-16 1
vn 0 -2.220446049250313E-16 1
vn 0 -2.220446049250313E-16 1
vn 0 -2.220446049250313E-16 1
vn 0 2.220446049250313E-16 -1
vn 0 2.220446049250313E-16 -1
vn 0 2.220446049250313E-16 -1
vn 0 2.220446049250313E-16 -1
# 8 vertex normals

vt 0 -0 0
vt 1 -0 0
vt 1 -1 0
vt 0 -1 0
vt 0 -0 0
vt 1 -0 0
vt 1 -1 0
vt 0 -1 0
# 8 texture coords

g Object_11
usemtl material_2
s 4
f 62/62/62 63/63/63 64/64/64
f 64/64/64 65/65/65 62/62/62
f 66/66/66 67/67/67 68/68/68
f 68/68/68 69/69/69 66/66/66
#4 polygons


#
# object Object_14
#

v 1 0.99999999999999984 1.00000000000000022
v 1 1 -0.99999999999999984
v 0.5 1 2.220446049250313E-16
v 0.43299999833106992 1 -0.24999999999999976
v -0.25 1 0.43299999833107016
v -1 0.99999999999999984 1.00000000000000022
v 0 1 0.50000000000000024
v 0.25 1 0.43299999833107016
v 0.43299999833106992 1 0.25000000000000024
v -1 1 -0.99999999999999984
v 0.25 1 -0.43299999833106976
v 0 1 -0.49999999999999976
v -0.25 1 -0.43299999833106976
v -0.43299999833106992 1 -0.24999999999999976
v -0.5 1 2.220446049250313E-16
v -0.43299999833106992 1 0.25000000000000024
v -1 -0.99999999999999984 -1.00000000000000022
v 1 -0.99999999999999984 -1.00000000000000022
v 0.25 -0.99999999999999984 -0.43299999833107016
v 0 -0.99999999999999984 -0.50000000000000024
v -0.25 -0.99999999999999984 -0.43299999833107016
v -1 -1.00000000000000022 0.99999999999999984
v -0.43299999833106992 -1 -0.25000000000000024
v -0.5 -1 -2.220446049250313E-16
v -0.43299999833106992 -1 0.24999999999999976
v -0.40389999747276304 -1 0.2791999876499174
v 1 -1.00000000000000022 0.99999999999999984
v 0.5 -1 -2.220446049250313E-16
v 0.43299999833106992 -1 -0.25000000000000024
v -0.25 -1 0.43299999833106976
v 0 -1 0.49999999999999976
v 0.25 -1 0.43299999833106976
v 0.43299999833106992 -1 0.24999999999999976
# 33 vertices

vn 0 1 2.220446049250313E-16
vn 0 1 2.220446049250313E-16
vn 0 1 2.220446049250313E-16
vn 0 1 2.220446049250313E-16
vn 0 1 2.220446049250313E-16
vn 0 1 2.220446049250313E-16
vn 0 1 2.220446049250313E-16
vn 0 1 2.220446049250313E-16
vn 0 1 2.220446049250313E-16
vn 0 1 2.220446049250313E-16
vn 0 1 2.220446049250313E-16
vn 0 1 2.220446049250313E-16
vn 0 1 2.220446049250313E-16
vn 0 1 2.220446049250313E-16
vn 0 1 2.220446049250313E-16
vn 0 1 2.220446049250313E-16
vn 0 -1 -2.220446049250313E-16
vn 0 -1 -2.220446049250313E-16
vn 0 -1 -2.220446049250313E-16
vn 0 -1 -2.220446049250313E-16
vn 0 -1 -2.220446049250313E-16
vn 0 -1 -2.220446049250313E-16
vn 0 -1 -2.220446049250313E-16
vn 0 -1 -2.220446049250313E-16
vn 0 -1 -2.220446049250313E-16
vn 0 -1 -2.220446049250313E-16
vn 0 -1 -2.220446049250313E-16
vn 0 -1 -2.220446049250313E-16
vn 0 -1 -2.220446049250313E-16
vn 0 -1 -2.220446049250313E-16
vn 0 -1 -2.220446049250313E-16
vn 0 -1 -2.220446049250313E-16
vn 0 -1 -2.220446049250313E-16
# 33 vertex normals

vt 0 -1 0
vt 0 -0 0
vt 0.25 -0.5 0
vt 0.28349998593330384 -0.375 0
vt 0.625 -0.71649998426437376 0
vt 1 -1 0
vt 0.5 -0.75 0
vt 0.375 -0.71649998426437376 0
vt 0.28349998593330384 -0.625 0
vt 1 -0 0
vt 0.375 -0.28349998593330384 0
vt 0.5 -0.25 0
vt 0.625 -0.28349998593330384 0
vt 0.71649998426437376 -0.375 0
vt 0.75 -0.5 0
vt 0.71649998426437376 -0.625 0
vt 1 -0 0
vt 0 -0 0
vt 0.375 -0.28349998593330384 0
vt 0.5 -0.25 0
vt 0.625 -0.28349998593330384 0
vt 1 -1 0
vt 0.71649998426437376 -0.375 0
vt 0.75 -0.5 0
vt 0.71649998426437376 -0.625 0
vt 0.70190000534057616 -0.6395999789237976 0
vt 0 -1 0
vt 0.25 -0.5 0
vt 0.28349998593330384 -0.375 0
vt 0.625 -0.71649998426437376 0
vt 0.5 -0.75 0
vt 0.375 -0.71649998426437376 0
vt 0.28349998593330384 -0.625 0
# 33 texture coords

g Object_14
usemtl material_3
s 8
f 70/70/70 71/71/71 72/72/72
f 72/72/72 71/71/71 73/73/73
f 74/74/74 75/75/75 70/70/70
f 74/74/74 70/70/70 76/76/76
f 76/76/76 70/70/70 77/77/77
f 77/77/77 70/70/70 78/78/78
f 72/72/72 78/78/78 70/70/70
f 71/71/71 79/79/79 80/80/80
f 73/73/73 71/71/71 80/80/80
f 80/80/80 79/79/79 81/81/81
f 81/81/81 79/79/79 82/82/82
f 82/82/82 79/79/79 83/83/83
f 83/83/83 79/79/79 84/84/84
f 79/79/79 75/75/75 84/84/84
f 75/75/75 74/74/74 85/85/85
f 84/84/84 75/75/75 85/85/85
f 86/86/86 87/87/87 88/88/88
f 86/86/86 88/88/88 89/89/89
f 86/86/86 89/89/89 90/90/90
f 91/91/91 86/86/86 92/92/92
f 86/86/86 90/90/90 92/92/92
f 93/93/93 91/91/91 92/92/92
f 93/93/93 94/94/94 91/91/91
f 94/94/94 95/95/95 91/91/91
f 96/96/96 97/97/97 87/87/87
f 87/87/87 97/97/97 98/98/98
f 98/98/98 88/88/88 87/87/87
f 96/96/96 91/91/91 99/99/99
f 91/91/91 95/95/95 99/99/99
f 100/100/100 96/96/96 99/99/99
f 96/96/96 100/100/100 101/101/101
f 96/96/96 101/101/101 102/102/102
f 102/102/102 97/97/97 96/96/96
#33 polygons

